<svg width="1250" height="471" viewBox="0 0 1250 471" fill="none" xmlns="http://www.w3.org/2000/svg">
<circle cx="8.5" cy="377.071" r="7.5" stroke="#03532F" stroke-width="2"/>
<path d="M50.5 282.429L9 330.429V369.857" stroke="#03532F" stroke-width="2"/>
<circle cx="101.5" cy="375.5" r="7.5" stroke="#03532F" stroke-width="2"/>
<path d="M1239 415L1147 325.5L985.5 426L823.5 360L661.5 457" stroke="#03532F" stroke-width="2"/>
<path d="M51 147.227L51 282.247L101 331.586L101 368M51 6L191.558 5.99999L191.558 161.195L480.676 161.195L480.676 5.99999L856.33 5.99999L1270 5.99998" stroke="#03532F" stroke-width="2"/>
<circle cx="1147.5" cy="325.5" r="13.5" fill="#F9FAFB" stroke="#03532F" stroke-width="2"/>
<circle cx="989.5" cy="422.5" r="13.5" fill="#F9FAFB" stroke="#03532F" stroke-width="2"/>
<circle cx="822.5" cy="360.5" r="13.5" fill="#F9FAFB" stroke="#03532F" stroke-width="2"/>
<circle cx="657.5" cy="456.5" r="13.5" fill="#F9FAFB" stroke="#03532F" stroke-width="2"/>
<path d="M197 94.5747C197 97.6643 194.527 100.149 191.5 100.149C188.473 100.149 186 97.6643 186 94.5747C186 91.4851 188.473 89 191.5 89C194.527 89 197 91.4851 197 94.5747Z" fill="#03532F" stroke="#03532F" stroke-width="2"/>
<path d="M332 186.575C332 189.664 329.527 192.149 326.5 192.149C323.473 192.149 321 189.664 321 186.575C321 183.485 323.473 181 326.5 181C329.527 181 332 183.485 332 186.575Z" fill="#03532F" stroke="#03532F" stroke-width="2"/>
<path d="M486 94.5747C486 97.6643 483.527 100.149 480.5 100.149C477.473 100.149 475 97.6643 475 94.5747C475 91.4851 477.473 89 480.5 89C483.527 89 486 91.4851 486 94.5747Z" fill="#03532F" stroke="#03532F" stroke-width="2"/>
<path d="M620 6.57471C620 9.66435 617.527 12.1494 614.5 12.1494C611.473 12.1494 609 9.66435 609 6.57471C609 3.48508 611.473 1 614.5 1C617.527 1 620 3.48508 620 6.57471Z" fill="#03532F" stroke="#03532F" stroke-width="2"/>
<circle cx="66.5" cy="413.929" r="7.5" stroke="#03532F" stroke-width="2"/>
<path d="M51 284.143V330L66.5 357V407.571" stroke="#03532F" stroke-width="2"/>
</svg>
