<svg width="1250" height="677" viewBox="0 0 1250 677" fill="none" xmlns="http://www.w3.org/2000/svg">
<path d="M0 564H249.5" stroke="#03532F" stroke-width="2"/>
<path d="M76 41V74.8851L105.5 108.77V380.356" stroke="#03532F" stroke-width="2"/>
<path d="M111 386.425C111 389.515 108.527 392 105.5 392C102.473 392 100 389.515 100 386.425C100 383.336 102.473 380.851 105.5 380.851C108.527 380.851 111 383.336 111 386.425Z" stroke="#03532F" stroke-width="2"/>
<path d="M260 563.575C260 566.664 257.527 569.149 254.5 569.149C251.473 569.149 249 566.664 249 563.575C249 560.485 251.473 558 254.5 558C257.527 558 260 560.485 260 563.575Z" stroke="#03532F" stroke-width="2"/>
<path d="M324 583.575C324 586.664 321.527 589.149 318.5 589.149C315.473 589.149 313 586.664 313 583.575C313 580.485 315.473 578 318.5 578C321.527 578 324 580.485 324 583.575Z" stroke="#03532F" stroke-width="2"/>
<path d="M412 543.575C412 546.664 409.527 549.149 406.5 549.149C403.473 549.149 401 546.664 401 543.575C401 540.485 403.473 538 406.5 538C409.527 538 412 540.485 412 543.575Z" stroke="#03532F" stroke-width="2"/>
<path d="M412 543.575C412 546.664 409.527 549.149 406.5 549.149C403.473 549.149 401 546.664 401 543.575C401 540.485 403.473 538 406.5 538C409.527 538 412 540.485 412 543.575Z" stroke="#03532F" stroke-width="2"/>
<path d="M907 318.575C907 321.664 904.527 324.149 901.5 324.149C898.473 324.149 896 321.664 896 318.575C896 315.485 898.473 313 901.5 313C904.527 313 907 315.485 907 318.575Z" stroke="#03532F" stroke-width="2"/>
<path d="M938 318.575C938 321.664 935.527 324.149 932.5 324.149C929.473 324.149 927 321.664 927 318.575C927 315.485 929.473 313 932.5 313C935.527 313 938 315.485 938 318.575Z" stroke="#03532F" stroke-width="2"/>
<path d="M1215 538.575C1215 541.664 1212.53 544.149 1209.5 544.149C1206.47 544.149 1204 541.664 1204 538.575C1204 535.485 1206.47 533 1209.5 533C1212.53 533 1215 535.485 1215 538.575Z" stroke="#03532F" stroke-width="2"/>
<path d="M124 360.379C124 363.501 121.52 366 118.5 366C115.48 366 113 363.501 113 360.379C113 357.257 115.48 354.758 118.5 354.758C121.52 354.758 124 357.257 124 360.379Z" stroke="#03532F" stroke-width="2"/>
<path d="M85 40V72L118 106.23V355.286" stroke="#03532F" stroke-width="2"/>
<mask id="path-13-inside-1_414_13" fill="white">
<path d="M60.0003 493.082C58.1618 494.275 56.6029 495.859 55.4127 497.745C54.2224 499.631 53.4242 501.78 53.0635 504.072C52.7028 506.363 52.7868 508.751 53.3105 511.1C53.8343 513.448 54.7876 515.711 56.116 517.759C57.4445 519.806 59.1221 521.599 61.053 523.035C62.9839 524.47 65.1304 525.521 67.3698 526.125C69.6092 526.73 71.8977 526.877 74.1047 526.559C76.3117 526.241 78.3939 525.463 80.2324 524.271L70.1164 508.676L60.0003 493.082Z"/>
</mask>
<path d="M60.0003 493.082C58.1618 494.275 56.6029 495.859 55.4127 497.745C54.2224 499.631 53.4242 501.78 53.0635 504.072C52.7028 506.363 52.7868 508.751 53.3105 511.1C53.8343 513.448 54.7876 515.711 56.116 517.759C57.4445 519.806 59.1221 521.599 61.053 523.035C62.9839 524.47 65.1304 525.521 67.3698 526.125C69.6092 526.73 71.8977 526.877 74.1047 526.559C76.3117 526.241 78.3939 525.463 80.2324 524.271L70.1164 508.676L60.0003 493.082Z" stroke="#03532F" stroke-width="4" mask="url(#path-13-inside-1_414_13)"/>
<path d="M70 508L76.5 504" stroke="#03532F" stroke-width="2"/>
<path d="M30.5 561.5L46.6765 537.382M58 520.5V547.5M58 520.5L68.5 537.382M58 520.5L46.6765 537.382M83.5 561.5L68.5 537.382M58 561.5V547.5M58 547.5L68.5 537.382M58 547.5L46.6765 537.382" stroke="#03532F" stroke-width="2"/>
<circle cx="79" cy="503" r="3" fill="#03532F"/>
<path d="M76 496C82.3506 496 87.6428 501 85.5259 509" stroke="#03532F" stroke-width="2"/>
<path d="M77 491C85.8909 491 93.2999 498.692 90.3363 511" stroke="#03532F" stroke-width="2"/>
<mask id="path-19-inside-2_414_13" fill="white">
<path d="M119.126 522.78C118.059 523.473 117.154 524.392 116.463 525.487C115.772 526.582 115.309 527.83 115.099 529.16C114.89 530.49 114.939 531.877 115.243 533.24C115.547 534.603 116.1 535.917 116.871 537.106C117.643 538.295 118.617 539.336 119.738 540.169C120.859 541.002 122.105 541.612 123.405 541.963C124.705 542.314 126.033 542.4 127.315 542.215C128.596 542.03 129.805 541.579 130.872 540.886L124.999 531.833L119.126 522.78Z"/>
</mask>
<path d="M119.126 522.78C118.059 523.473 117.154 524.392 116.463 525.487C115.772 526.582 115.309 527.83 115.099 529.16C114.89 530.49 114.939 531.877 115.243 533.24C115.547 534.603 116.1 535.917 116.871 537.106C117.643 538.295 118.617 539.336 119.738 540.169C120.859 541.002 122.105 541.612 123.405 541.963C124.705 542.314 126.033 542.4 127.315 542.215C128.596 542.03 129.805 541.579 130.872 540.886L124.999 531.833L119.126 522.78Z" stroke="#03532F" stroke-width="4" mask="url(#path-19-inside-2_414_13)"/>
<path d="M124.932 531.44L128.705 529.118" stroke="#03532F" stroke-width="2"/>
<path d="M102 562.499L111.391 548.498M117.965 538.697V554.372M117.965 538.697L124.061 548.498M117.965 538.697L111.391 548.498M132.769 562.499L124.061 548.498M117.965 562.499V554.372M117.965 554.372L124.061 548.498M117.965 554.372L111.391 548.498" stroke="#03532F" stroke-width="2"/>
<circle cx="130.157" cy="528.537" r="1.74165" fill="#03532F"/>
<path d="M128.415 524.474C132.102 524.473 135.174 527.376 133.945 532.021" stroke="#03532F" stroke-width="2"/>
<path d="M128.996 521.571C134.157 521.571 138.459 526.037 136.738 533.182" stroke="#03532F" stroke-width="2"/>
<path d="M653 208H861V319.5H896.5M737 455V379H978V319.5H937.25" stroke="#03532F" stroke-width="2"/>
<path d="M1216.5 539.5H1251.5" stroke="#03532F" stroke-width="2"/>
<path d="M313 584H191L170 564L191 543.5H400" stroke="#03532F" stroke-width="2"/>
</svg>
