<svg width="152" height="47" viewBox="0 0 152 47" fill="none" xmlns="http://www.w3.org/2000/svg">
<g clip-path="url(#clip0_401_20)">
<mask id="mask0_401_20" style="mask-type:luminance" maskUnits="userSpaceOnUse" x="0" y="0" width="152" height="47">
<path d="M152 0H0V46.374H152V0Z" fill="white"/>
</mask>
<g mask="url(#mask0_401_20)">
<path d="M53.8782 38.3887V29.6164H50.5586V27.2866H59.8761V29.6164H56.5563V38.3887H53.8782Z" fill="white"/>
<path d="M61.207 38.3887V27.2866H68.0608V29.6164H63.8841V31.6348H67.2194V33.9632H63.8841V36.0596H68.2753V38.3887H61.207Z" fill="white"/>
<path d="M69.9883 38.3887V27.2866H72.6655V36.0596H77.1335V38.3887H69.9883Z" fill="white"/>
<path d="M78.4336 38.3887V27.2866H85.2875V29.6164H81.1108V31.6348H84.4462V33.9632H81.1108V36.0596H85.5018V38.3887H78.4336Z" fill="white"/>
<path d="M86.6348 32.8156C86.6348 31.1796 87.1729 29.8186 88.2489 28.7314C89.3248 27.6449 90.6989 27.1011 92.3723 27.1011C93.1375 27.1011 93.8811 27.2337 94.6058 27.4979C95.3293 27.7612 95.9515 28.1527 96.472 28.6691L95.2328 30.7198C94.8661 30.3879 94.4345 30.1164 93.9403 29.9042C93.4455 29.6921 92.9635 29.5853 92.4942 29.5853C91.4743 29.5853 90.7043 29.8932 90.1844 30.5098C89.664 31.1255 89.4037 31.8734 89.4037 32.7533C89.4037 33.6544 89.6714 34.4351 90.2074 35.098C90.7426 35.7603 91.5052 36.0916 92.4942 36.0916C93.5346 36.0916 94.5033 35.6358 95.4013 34.7252L96.7781 36.712C95.5949 37.9547 94.1259 38.5759 92.3723 38.5759C90.6375 38.5759 89.248 38.0354 88.203 36.9537C87.1566 35.8718 86.6348 34.4918 86.6348 32.8156Z" fill="white"/>
<path d="M97.543 32.7685C97.543 31.1537 98.0783 29.8057 99.1483 28.7241C100.22 27.6425 101.591 27.1011 103.264 27.1011C104.937 27.1011 106.31 27.6425 107.38 28.7241C108.451 29.8057 108.986 31.1537 108.986 32.7685C108.986 34.4248 108.451 35.8063 107.38 36.914C106.31 38.0218 104.937 38.5754 103.264 38.5754C101.591 38.5754 100.22 38.0218 99.1483 36.914C98.0783 35.8063 97.543 34.4248 97.543 32.7685ZM100.312 32.7685C100.312 33.7216 100.589 34.5133 101.145 35.1441C101.702 35.7756 102.407 36.0911 103.264 36.0911C104.121 36.0911 104.827 35.7756 105.383 35.1441C105.939 34.5133 106.217 33.7216 106.217 32.7685C106.217 31.8578 105.939 31.0996 105.383 30.4941C104.827 29.888 104.121 29.5854 103.264 29.5854C102.407 29.5854 101.702 29.888 101.145 30.4941C100.589 31.0996 100.312 31.8578 100.312 32.7685Z" fill="white"/>
<path d="M110.256 38.3887L111.158 27.2866H114.065L115.657 31.9761L116.208 33.8086H116.238C116.442 33.0635 116.626 32.4525 116.789 31.9761L118.38 27.2866H121.286L122.174 38.3887H119.497L119.16 33.3891C119.14 33.1409 119.129 32.8609 119.129 32.5511C119.129 32.2403 119.135 31.9913 119.145 31.8051L119.16 31.5261H119.129C118.885 32.302 118.681 32.9232 118.517 33.3891L117.37 36.6036H115.075L113.927 33.3891L113.316 31.5261H113.285C113.326 32.2089 113.326 32.8302 113.285 33.3891L112.948 38.3887H110.256Z" fill="white"/>
<path d="M50.5586 22.4589V6.63232H60.1121V7.79902C60.1121 8.98888 59.1615 9.95359 57.9891 9.95359H54.3761V13.2734H59.1303V14.3983C59.1303 15.6107 58.1624 16.5938 56.9675 16.5938H54.3761V22.4589H50.5586Z" fill="white"/>
<path d="M66.0888 13.8037H67.7467C68.371 13.8037 68.8577 13.6348 69.2077 13.2946C69.5563 12.9566 69.7302 12.4771 69.7302 11.857C69.7302 10.9853 69.4253 10.4243 68.8154 10.1739C68.4802 10.0269 68.0003 9.95359 67.3751 9.95359H66.0888V13.8037ZM62.2715 22.4589V6.63232H67.7021C69.0836 6.63232 70.0943 6.75825 70.7341 7.00943C71.6361 7.36183 72.3407 7.93454 72.8504 8.72414C73.3586 9.51363 73.6128 10.4762 73.6128 11.6136C73.6128 12.4981 73.4093 13.3432 73.0027 14.1472C72.5955 14.9519 72.0204 15.5457 71.2788 15.9296V15.974C71.4244 16.1655 71.6206 16.4831 71.8688 16.9257L74.8999 22.4589H70.6463L67.8767 17.1235H66.0888V22.4589H62.2715Z" fill="white"/>
<path d="M76.623 22.4589V6.63232H86.3945V9.95359H80.44V12.83H85.1946V16.1499H80.44V19.1392H86.6999V22.4589H76.623Z" fill="white"/>
<path d="M89.1406 22.4589V6.63232H98.9125V9.95359H92.9578V12.83H97.7122V16.1499H92.9578V19.1392H99.2178V22.4589H89.1406Z" fill="white"/>
<path d="M105.477 19.1392H107.048C108.385 19.1392 109.428 18.7409 110.177 17.9439C110.926 17.1473 111.3 16.0034 111.3 14.5131C111.3 13.0373 110.922 11.9084 110.167 11.1264C109.41 10.3436 108.37 9.95359 107.048 9.95359H105.477V19.1392ZM101.66 22.4589V6.63232H107.2C109.671 6.63232 111.63 7.32908 113.078 8.72414C114.525 10.1192 115.249 12.0486 115.249 14.5131C115.249 16.9914 114.525 18.9359 113.078 20.3454C111.63 21.7543 109.671 22.4589 107.2 22.4589H101.66Z" fill="white"/>
<path d="M120.83 14.4462C120.83 15.8044 121.226 16.9321 122.019 17.8332C122.811 18.7321 123.82 19.183 125.041 19.183C126.262 19.183 127.269 18.7321 128.061 17.8332C128.853 16.9321 129.25 15.8044 129.25 14.4462C129.25 13.1477 128.853 12.0658 128.061 11.2018C127.269 10.339 126.262 9.9085 125.041 9.9085C123.82 9.9085 122.811 10.339 122.019 11.2018C121.226 12.0658 120.83 13.1477 120.83 14.4462ZM116.883 14.4462C116.883 12.1432 117.647 10.2225 119.173 8.67906C120.7 7.13757 122.655 6.36572 125.041 6.36572C127.425 6.36572 129.381 7.13757 130.908 8.67906C132.434 10.2225 133.198 12.1432 133.198 14.4462C133.198 16.8062 132.434 18.7767 130.908 20.3565C129.381 21.9356 127.425 22.7238 125.041 22.7238C122.655 22.7238 120.7 21.9356 119.173 20.3565C117.647 18.7767 116.883 16.8062 116.883 14.4462Z" fill="white"/>
<path d="M135.008 22.4589L136.294 6.63232H140.439L142.707 13.3164L143.492 15.9296H143.536C143.827 14.8668 144.088 13.9953 144.321 13.3164L146.589 6.63232H150.734L151.999 22.4589H148.183L147.702 15.3316C147.673 14.9771 147.659 14.5796 147.659 14.1362C147.659 13.6929 147.665 13.3397 147.68 13.0728L147.702 12.676H147.659C147.309 13.7825 147.019 14.6672 146.787 15.3316L145.151 19.9136H141.879L140.243 15.3316L139.37 12.676H139.326C139.384 13.6496 139.384 14.5345 139.326 15.3316L138.847 22.4589H135.008Z" fill="white"/>
<path d="M0.19 10.2023C0.342 18.9554 0.494 20.8973 1.178 23.6508C3.116 31.4764 6.764 37.592 12.084 41.9975C14.63 44.0843 17.86 45.9103 19.608 46.2581C22.648 46.8378 30.97 40.2005 34.504 34.3168C38.874 27.1288 40.318 20.3466 40.356 7.30391V0H20.178H0L0.19 10.2023ZM37.924 12.8108C37.62 20.3176 36.898 23.7957 34.58 29.1287C32.49 33.911 29.374 37.9108 25.46 40.8092C23.56 42.2004 20.444 44.0553 20.026 44.0553C19.912 44.0553 19 43.5916 17.936 43.0119L16.036 41.9685V36.4906V31.0126H20.596C25.726 31.0126 27.094 30.7228 28.652 29.3316C29.906 28.2012 30.476 26.2013 30.476 23.0421V20.5785H23.256H16.036V16.5208V12.463H23.94C32.11 12.4341 33.858 12.2312 35.492 11.1008C36.48 10.4342 37.696 8.60817 37.696 7.82561C37.696 7.50679 37.81 7.24594 37.962 7.24594C38.076 7.24594 38.076 9.76752 37.924 12.8108Z" fill="white"/>
</g>
</g>
<defs>
<clipPath id="clip0_401_20">
<rect width="152" height="47" fill="white"/>
</clipPath>
</defs>
</svg>
