<svg width="1250" height="626" viewBox="0 0 1250 626" fill="none" xmlns="http://www.w3.org/2000/svg">
<path d="M1027.06 469.226C1023.81 468.905 1020.54 469.597 1017.69 471.207C1014.85 472.817 1012.57 475.267 1011.18 478.221C1009.78 481.175 1009.33 484.489 1009.89 487.709C1010.45 490.929 1011.99 493.897 1014.3 496.208C1016.61 498.519 1019.57 500.059 1022.79 500.617C1026.01 501.176 1029.32 500.725 1032.28 499.328C1035.23 497.93 1037.68 495.654 1039.29 492.81C1040.9 489.966 1041.59 486.694 1041.27 483.442C1040.9 479.797 1039.29 476.39 1036.7 473.799C1034.11 471.208 1030.7 469.592 1027.06 469.226ZM1065.21 485C1065.2 486.723 1065.07 488.443 1064.83 490.149L1076.02 498.931C1076.51 499.335 1076.84 499.899 1076.95 500.523C1077.06 501.146 1076.95 501.789 1076.63 502.336L1066.04 520.664C1065.72 521.206 1065.22 521.617 1064.62 521.825C1064.03 522.033 1063.38 522.024 1062.79 521.8L1051.67 517.323C1051.06 517.078 1050.39 516.99 1049.74 517.066C1049.08 517.141 1048.46 517.379 1047.92 517.756C1046.22 518.925 1044.44 519.963 1042.58 520.862C1042 521.145 1041.5 521.568 1041.12 522.092C1040.73 522.616 1040.49 523.226 1040.4 523.868L1038.73 535.729C1038.62 536.355 1038.3 536.924 1037.82 537.338C1037.34 537.753 1036.72 537.987 1036.09 538H1014.91C1014.29 537.989 1013.68 537.766 1013.2 537.366C1012.72 536.967 1012.39 536.416 1012.26 535.803L1010.6 523.96C1010.51 523.311 1010.25 522.695 1009.87 522.167C1009.48 521.639 1008.96 521.215 1008.37 520.934C1006.52 520.04 1004.74 518.998 1003.06 517.82C1002.52 517.445 1001.9 517.21 1001.24 517.136C1000.59 517.062 999.928 517.151 999.318 517.397L988.205 521.872C987.616 522.097 986.966 522.106 986.371 521.898C985.776 521.691 985.273 521.28 984.951 520.738L974.363 502.411C974.044 501.863 973.93 501.22 974.041 500.597C974.153 499.973 974.481 499.409 974.969 499.005L984.429 491.575C984.947 491.164 985.355 490.629 985.614 490.02C985.873 489.411 985.977 488.747 985.915 488.088C985.825 487.056 985.771 486.025 985.771 484.993C985.771 483.96 985.823 482.944 985.915 481.934C985.97 481.279 985.862 480.62 985.599 480.018C985.337 479.415 984.929 478.887 984.412 478.481L974.957 471.052C974.477 470.646 974.155 470.084 974.048 469.464C973.94 468.845 974.055 468.207 974.37 467.664L984.959 449.336C985.28 448.794 985.783 448.383 986.378 448.175C986.973 447.967 987.623 447.976 988.212 448.2L999.328 452.677C999.941 452.922 1000.61 453.01 1001.26 452.934C1001.92 452.859 1002.54 452.621 1003.08 452.244C1004.78 451.075 1006.56 450.037 1008.42 449.138C1009 448.855 1009.5 448.432 1009.88 447.908C1010.27 447.384 1010.51 446.774 1010.6 446.132L1012.27 434.271C1012.38 433.645 1012.7 433.076 1013.18 432.662C1013.66 432.247 1014.28 432.013 1014.91 432H1036.09C1036.71 432.011 1037.32 432.234 1037.8 432.634C1038.28 433.033 1038.61 433.584 1038.74 434.197L1040.4 446.04C1040.49 446.689 1040.75 447.305 1041.13 447.833C1041.52 448.361 1042.04 448.785 1042.63 449.066C1044.48 449.96 1046.26 451.001 1047.94 452.18C1048.48 452.555 1049.1 452.79 1049.76 452.864C1050.41 452.938 1051.07 452.849 1051.68 452.603L1062.8 448.128C1063.38 447.903 1064.03 447.894 1064.63 448.102C1065.22 448.309 1065.73 448.72 1066.05 449.262L1076.64 467.589C1076.96 468.137 1077.07 468.78 1076.96 469.403C1076.85 470.027 1076.52 470.591 1076.03 470.995L1066.57 478.425C1066.05 478.835 1065.64 479.369 1065.38 479.978C1065.12 480.587 1065.01 481.252 1065.07 481.912C1065.15 482.937 1065.21 483.967 1065.21 485Z" stroke="#03532F" stroke-width="2" stroke-linecap="round" stroke-linejoin="round"/>
<path d="M1049.36 569.72C1047.56 569.542 1045.75 569.927 1044.18 570.823C1042.61 571.719 1041.35 573.083 1040.57 574.727C1039.8 576.371 1039.55 578.216 1039.86 580.008C1040.17 581.8 1041.02 583.452 1042.3 584.738C1043.58 586.025 1045.22 586.882 1047 587.193C1048.78 587.504 1050.62 587.253 1052.25 586.475C1053.88 585.697 1055.24 584.43 1056.13 582.847C1057.02 581.264 1057.4 579.443 1057.23 577.633C1057.02 575.604 1056.13 573.707 1054.7 572.265C1053.26 570.823 1051.38 569.924 1049.36 569.72ZM1070.48 578.5C1070.47 579.459 1070.4 580.416 1070.27 581.366L1076.46 586.254C1076.73 586.479 1076.91 586.793 1076.97 587.14C1077.03 587.487 1076.97 587.845 1076.8 588.15L1070.94 598.35C1070.76 598.652 1070.48 598.881 1070.15 598.997C1069.82 599.113 1069.46 599.108 1069.14 598.983L1062.98 596.491C1062.64 596.355 1062.28 596.306 1061.91 596.348C1061.55 596.39 1061.2 596.522 1060.9 596.732C1059.97 597.383 1058.98 597.96 1057.95 598.461C1057.63 598.618 1057.35 598.854 1057.14 599.145C1056.93 599.437 1056.79 599.777 1056.75 600.134L1055.82 606.736C1055.76 607.085 1055.58 607.401 1055.32 607.632C1055.05 607.862 1054.71 607.993 1054.36 608H1042.64C1042.29 607.994 1041.96 607.87 1041.69 607.647C1041.43 607.425 1041.25 607.118 1041.18 606.777L1040.25 600.185C1040.2 599.824 1040.06 599.481 1039.85 599.187C1039.63 598.893 1039.35 598.658 1039.02 598.501C1038 598.003 1037.01 597.424 1036.08 596.768C1035.78 596.559 1035.44 596.428 1035.08 596.387C1034.71 596.346 1034.35 596.396 1034.01 596.532L1027.86 599.023C1027.53 599.148 1027.18 599.153 1026.85 599.038C1026.52 598.922 1026.24 598.693 1026.06 598.392L1020.2 588.191C1020.02 587.886 1019.96 587.528 1020.02 587.181C1020.08 586.834 1020.27 586.52 1020.54 586.295L1025.77 582.16C1026.06 581.931 1026.28 581.633 1026.43 581.294C1026.57 580.955 1026.63 580.586 1026.59 580.219C1026.54 579.644 1026.51 579.071 1026.51 578.496C1026.51 577.921 1026.54 577.356 1026.59 576.793C1026.62 576.429 1026.56 576.062 1026.42 575.727C1026.27 575.391 1026.05 575.098 1025.76 574.872L1020.53 570.736C1020.26 570.51 1020.09 570.198 1020.03 569.853C1019.97 569.508 1020.03 569.153 1020.2 568.85L1026.06 558.65C1026.24 558.348 1026.52 558.119 1026.85 558.003C1027.18 557.887 1027.54 557.892 1027.86 558.017L1034.02 560.509C1034.36 560.645 1034.72 560.694 1035.09 560.652C1035.45 560.61 1035.8 560.478 1036.1 560.268C1037.03 559.617 1038.02 559.04 1039.05 558.539C1039.37 558.382 1039.65 558.146 1039.86 557.855C1040.07 557.563 1040.21 557.223 1040.25 556.866L1041.18 550.264C1041.24 549.915 1041.42 549.599 1041.68 549.368C1041.95 549.138 1042.29 549.007 1042.64 549H1054.36C1054.71 549.006 1055.04 549.13 1055.31 549.353C1055.57 549.575 1055.75 549.882 1055.82 550.223L1056.75 556.815C1056.8 557.176 1056.94 557.519 1057.15 557.813C1057.37 558.107 1057.65 558.342 1057.98 558.499C1059 558.997 1059.99 559.576 1060.92 560.232C1061.22 560.441 1061.56 560.572 1061.92 560.613C1062.29 560.654 1062.65 560.604 1062.99 560.468L1069.14 557.977C1069.47 557.852 1069.82 557.847 1070.15 557.962C1070.48 558.078 1070.76 558.307 1070.94 558.608L1076.8 568.809C1076.98 569.114 1077.04 569.472 1076.98 569.819C1076.92 570.166 1076.73 570.48 1076.46 570.705L1071.23 574.84C1070.94 575.068 1070.71 575.366 1070.57 575.705C1070.42 576.044 1070.37 576.414 1070.4 576.781C1070.44 577.352 1070.48 577.925 1070.48 578.5Z" stroke="#03532F" stroke-width="2" stroke-linecap="round" stroke-linejoin="round"/>
<path d="M1217.11 443.334C1208.53 442.485 1199.89 444.313 1192.38 448.566C1184.88 452.819 1178.87 459.291 1175.18 467.094C1171.49 474.897 1170.3 483.65 1171.77 492.155C1173.25 500.661 1177.31 508.502 1183.41 514.606C1189.51 520.71 1197.35 524.778 1205.85 526.253C1214.35 527.729 1223.1 526.539 1230.9 522.847C1238.69 519.155 1245.16 513.142 1249.41 505.63C1253.66 498.118 1255.49 489.476 1254.64 480.885C1253.67 471.255 1249.41 462.255 1242.57 455.412C1235.73 448.568 1226.74 444.301 1217.11 443.334ZM1317.86 485C1317.84 489.551 1317.5 494.095 1316.86 498.601L1346.42 521.799C1347.71 522.867 1348.58 524.356 1348.87 526.003C1349.16 527.65 1348.86 529.348 1348.02 530.794L1320.06 579.206C1319.21 580.638 1317.88 581.725 1316.31 582.275C1314.74 582.824 1313.03 582.8 1311.47 582.208L1282.11 570.38C1280.49 569.735 1278.74 569.502 1277.01 569.702C1275.28 569.902 1273.62 570.528 1272.2 571.525C1267.72 574.612 1263.01 577.355 1258.11 579.729C1256.57 580.477 1255.24 581.593 1254.24 582.979C1253.23 584.364 1252.58 585.975 1252.35 587.671L1247.95 619.001C1247.66 620.656 1246.8 622.158 1245.53 623.253C1244.26 624.347 1242.64 624.964 1240.96 625H1185.04C1183.39 624.971 1181.79 624.381 1180.52 623.326C1179.25 622.272 1178.38 620.815 1178.05 619.197L1173.65 587.913C1173.41 586.199 1172.74 584.572 1171.71 583.177C1170.69 581.782 1169.33 580.663 1167.77 579.919C1162.88 577.557 1158.19 574.807 1153.74 571.695C1152.31 570.703 1150.67 570.082 1148.94 569.887C1147.22 569.691 1145.47 569.928 1143.86 570.577L1114.51 582.398C1112.96 582.991 1111.24 583.015 1109.67 582.467C1108.1 581.919 1106.77 580.833 1105.92 579.402L1077.96 530.991C1077.12 529.544 1076.82 527.846 1077.11 526.199C1077.4 524.552 1078.27 523.062 1079.56 521.995L1104.54 502.369C1105.91 501.282 1106.99 499.87 1107.67 498.262C1108.36 496.653 1108.63 494.899 1108.46 493.158C1108.23 490.43 1108.08 487.708 1108.08 484.98C1108.08 482.252 1108.22 479.57 1108.46 476.901C1108.61 475.171 1108.32 473.431 1107.63 471.839C1106.94 470.247 1105.86 468.853 1104.5 467.781L1079.53 448.155C1078.26 447.083 1077.41 445.598 1077.13 443.962C1076.84 442.326 1077.14 440.642 1077.98 439.206L1105.94 390.794C1106.79 389.362 1108.12 388.275 1109.69 387.725C1111.26 387.176 1112.97 387.2 1114.53 387.792L1143.89 399.62C1145.51 400.265 1147.26 400.498 1148.99 400.298C1150.72 400.098 1152.38 399.472 1153.8 398.475C1158.28 395.388 1162.99 392.645 1167.89 390.271C1169.43 389.523 1170.76 388.407 1171.76 387.021C1172.77 385.636 1173.42 384.025 1173.65 382.329L1178.05 350.999C1178.34 349.344 1179.2 347.842 1180.47 346.747C1181.74 345.653 1183.36 345.036 1185.04 345H1240.96C1242.61 345.029 1244.21 345.619 1245.48 346.674C1246.75 347.728 1247.62 349.185 1247.95 350.803L1252.35 382.087C1252.59 383.801 1253.26 385.428 1254.29 386.823C1255.31 388.218 1256.67 389.337 1258.23 390.081C1263.12 392.443 1267.81 395.193 1272.26 398.305C1273.69 399.297 1275.33 399.918 1277.06 400.113C1278.78 400.309 1280.53 400.072 1282.14 399.423L1311.49 387.602C1313.04 387.009 1314.76 386.985 1316.33 387.533C1317.9 388.081 1319.23 389.167 1320.08 390.598L1348.04 439.009C1348.88 440.456 1349.18 442.154 1348.89 443.801C1348.6 445.448 1347.73 446.938 1346.44 448.005L1321.46 467.631C1320.08 468.714 1319 470.125 1318.31 471.734C1317.62 473.342 1317.34 475.098 1317.5 476.842C1317.72 479.55 1317.86 482.272 1317.86 485Z" stroke="#03532F" stroke-width="2" stroke-linecap="round" stroke-linejoin="round"/>
<path d="M1229.5 5H944.75H660M47.5 320.5H660V37.5" stroke="#03532F"/>
<circle cx="659.5" cy="6.5" r="5.5" fill="#03532F" stroke="#03532F" stroke-width="2"/>
<circle cx="659.5" cy="36.5" r="5.5" fill="#03532F" stroke="#03532F" stroke-width="2"/>
<circle cx="47.5" cy="320.5" r="5.5" fill="#03532F" stroke="#03532F" stroke-width="2"/>
<circle cx="47.5" cy="320.5" r="5.5" fill="#03532F" stroke="#03532F" stroke-width="2"/>
<circle cx="395.5" cy="569.5" r="7.5" stroke="#03532F" stroke-width="2"/>
<circle cx="395.5" cy="605.5" r="7.5" stroke="#03532F" stroke-width="2"/>
<circle cx="507.5" cy="583.5" r="7.5" stroke="#03532F" stroke-width="2"/>
<path d="M-64 591.5L317 591.5M317 591.5L346 569.5H388.5M317 591.5L346 606H388.5M317 591.5L346 584H500.5" stroke="#03532F" stroke-width="2"/>
</svg>
