<svg width="1242" height="712" viewBox="0 0 1242 712" fill="none" xmlns="http://www.w3.org/2000/svg">
<circle cx="1168.5" cy="524.5" r="7.5" stroke="#03532F" stroke-width="2"/>
<path d="M1148.5 14.4998V62.9998L1168.5 89.9998V517.5" stroke="#03532F" stroke-width="2"/>
<circle cx="446.5" cy="47.4998" r="7.5" stroke="#03532F" stroke-width="2"/>
<circle cx="738.5" cy="58.4998" r="7.5" stroke="#03532F" stroke-width="2"/>
<path d="M992.5 16.9998L966 47.9998H454.5" stroke="#03532F" stroke-width="2"/>
<path d="M1005.5 16.9998L972 58.4998H746.5" stroke="#03532F" stroke-width="2"/>
<circle cx="8.5" cy="121.5" r="7.5" transform="rotate(-90 8.5 121.5)" stroke="#03532F" stroke-width="2"/>
<circle cx="44.5" cy="121.5" r="7.5" transform="rotate(-90 44.5 121.5)" stroke="#03532F" stroke-width="2"/>
<circle cx="22.5" cy="9.49878" r="7.5" transform="rotate(-90 22.5 9.49878)" stroke="#03532F" stroke-width="2"/>
<path d="M30.5 580.999L30.5 199.999M30.5 199.999L8.49998 170.999L8.49998 128.499M30.5 199.999L45 170.999L45 128.499M30.5 199.999L23 170.999L23 16.499" stroke="#03532F" stroke-width="2"/>
<path d="M1246 643L1192.22 678.207L1121.19 643L1027.33 703" stroke="#03532F" stroke-width="2"/>
<circle cx="1121.5" cy="643.5" r="7.5" transform="rotate(-90 1121.5 643.5)" fill="#F9FAFB" stroke="#03532F" stroke-width="2"/>
<circle cx="1025.5" cy="703.5" r="7.5" transform="rotate(-90 1025.5 703.5)" fill="#F9FAFB" stroke="#03532F" stroke-width="2"/>
<circle cx="1193.5" cy="677.5" r="7.5" transform="rotate(-90 1193.5 677.5)" fill="#F9FAFB" stroke="#03532F" stroke-width="2"/>
</svg>
