<svg width="1250" height="389" viewBox="0 0 1250 389" fill="none" xmlns="http://www.w3.org/2000/svg">
<ellipse cx="1141.2" cy="347.205" rx="179" ry="180.5" transform="rotate(-45 1141.2 347.205)" fill="url(#paint0_linear_416_27)"/>
<ellipse cx="990" cy="222.5" rx="38.5" ry="39" transform="rotate(-90 990 222.5)" fill="url(#paint1_linear_416_27)"/>
<g filter="url(#filter0_d_416_27)">
<ellipse cx="1143.04" cy="169.272" rx="87.1635" ry="87.8939" transform="rotate(-45 1143.04 169.272)" fill="white"/>
</g>
<circle cx="828" cy="157.5" r="5.5" stroke="#03532F" stroke-width="2"/>
<circle cx="274" cy="6.5" r="5.5" stroke="#03532F" stroke-width="2"/>
<circle cx="375" cy="29.5" r="5.5" stroke="#03532F" stroke-width="2"/>
<circle cx="71" cy="358.5" r="5.5" stroke="#03532F" stroke-width="2"/>
<path d="M-28.5 31H170.5L225.5 7H269" stroke="#03532F" stroke-width="2"/>
<path d="M-27.5 237H41.5V291L71 330V352" stroke="#03532F" stroke-width="2"/>
<path d="M-31 55H173L235 28.5H370.5" stroke="#03532F" stroke-width="2"/>
<path d="M862.5 389V261.5L828 212V163" stroke="#03532F" stroke-width="2"/>
<defs>
<filter id="filter0_d_416_27" x="1037.51" y="67.7429" width="211.059" height="211.059" filterUnits="userSpaceOnUse" color-interpolation-filters="sRGB">
<feFlood flood-opacity="0" result="BackgroundImageFix"/>
<feColorMatrix in="SourceAlpha" type="matrix" values="0 0 0 0 0 0 0 0 0 0 0 0 0 0 0 0 0 0 127 0" result="hardAlpha"/>
<feOffset dy="4"/>
<feGaussianBlur stdDeviation="9"/>
<feComposite in2="hardAlpha" operator="out"/>
<feColorMatrix type="matrix" values="0 0 0 0 0 0 0 0 0 0 0 0 0 0 0 0 0 0 0.25 0"/>
<feBlend mode="normal" in2="BackgroundImageFix" result="effect1_dropShadow_416_27"/>
<feBlend mode="normal" in="SourceGraphic" in2="effect1_dropShadow_416_27" result="shape"/>
</filter>
<linearGradient id="paint0_linear_416_27" x1="1289.42" y1="234.925" x2="1013.12" y2="430.586" gradientUnits="userSpaceOnUse">
<stop offset="0.142736" stop-color="#53AA41"/>
<stop offset="1" stop-color="#53AA41" stop-opacity="0"/>
</linearGradient>
<linearGradient id="paint1_linear_416_27" x1="1021.88" y1="198.24" x2="962.27" y2="240.259" gradientUnits="userSpaceOnUse">
<stop offset="0.142736" stop-color="#53AA41"/>
<stop offset="1" stop-color="#53AA41" stop-opacity="0"/>
</linearGradient>
</defs>
</svg>
